<?xml version="1.0" standalone="no"?>
<!DOCTYPE svg PUBLIC "-//W3C//DTD SVG 20010904//EN"
 "http://www.w3.org/TR/2001/REC-SVG-20010904/DTD/svg10.dtd">
<svg version="1.0" xmlns="http://www.w3.org/2000/svg"
 width="424.000000pt" height="424.000000pt" viewBox="0 0 424.000000 424.000000"
 preserveAspectRatio="xMidYMid meet">

<g transform="translate(0.000000,424.000000) scale(0.100000,-0.100000)"
fill="#000000" stroke="none">
<path d="M1925 4229 c-219 -21 -497 -96 -696 -187 -358 -165 -702 -471 -912
-812 -125 -203 -225 -463 -273 -707 -41 -210 -45 -518 -10 -748 29 -189 94
-393 186 -580 121 -248 285 -464 495 -655 93 -85 251 -200 274 -200 5 0 11 -4
13 -8 3 -8 114 -82 123 -82 2 0 51 -22 107 -49 57 -27 135 -58 173 -70 39 -12
78 -27 88 -32 10 -5 37 -14 60 -19 23 -5 69 -16 102 -24 80 -21 217 -38 226
-28 4 4 9 91 11 194 l3 188 -25 9 c-14 5 -47 12 -75 16 -61 7 -222 52 -250 69
-11 7 -33 16 -49 20 -36 9 -165 70 -231 109 -115 69 -235 154 -235 167 0 5 -8
11 -17 14 -10 3 -55 43 -100 89 -111 111 -204 228 -263 332 -13 22 -34 58 -47
80 -21 37 -31 57 -67 140 -8 17 -19 48 -26 70 -7 22 -16 45 -20 50 -12 14 -50
166 -68 265 -21 119 -20 444 2 570 17 102 49 232 65 265 5 11 19 46 30 77 11
32 25 66 30 75 5 10 24 47 41 83 18 36 39 72 46 81 8 8 14 23 14 32 0 9 4 17
8 17 4 0 15 13 25 29 9 16 32 47 50 69 17 22 41 53 52 68 40 58 223 232 315
300 130 96 217 144 445 245 11 5 52 16 90 24 39 9 79 20 90 25 40 19 250 40
398 40 144 0 323 -18 391 -40 17 -5 72 -21 121 -36 97 -28 135 -44 260 -106
115 -57 140 -72 182 -104 21 -16 56 -41 78 -55 22 -15 50 -36 63 -48 12 -12
22 -19 22 -16 0 3 45 -40 100 -95 55 -56 100 -106 100 -111 0 -6 5 -7 10 -4 6
3 10 0 10 -7 0 -8 27 -50 61 -93 33 -44 67 -93 75 -110 8 -16 27 -50 43 -75
16 -25 30 -52 30 -60 1 -9 8 -25 16 -36 38 -56 124 -326 141 -444 34 -248 32
-357 -10 -600 -9 -52 -21 -104 -25 -115 -5 -11 -23 -64 -40 -117 -28 -88 -81
-210 -113 -263 -7 -11 -23 -37 -35 -57 -13 -21 -23 -44 -23 -52 0 -8 -4 -16
-9 -18 -9 -3 -111 -136 -111 -145 0 -9 -249 -253 -258 -253 -12 0 -4 1248 9
1271 9 18 25 19 212 19 111 0 212 3 224 6 41 11 53 60 53 209 0 149 -11 188
-56 199 -12 3 -383 6 -824 6 l-803 0 -18 -22 c-17 -19 -19 -40 -19 -187 0
-135 3 -171 16 -189 15 -22 18 -22 258 -22 183 0 246 -3 254 -12 5 -7 12 -59
14 -115 1 -56 7 -105 11 -110 5 -4 76 -7 158 -6 l149 1 0 -849 c0 -467 2 -849
5 -849 16 0 156 61 250 110 316 162 595 413 798 720 235 355 363 816 344 1241
-17 367 -117 704 -299 1008 -172 286 -456 567 -743 736 -378 223 -836 325
-1270 284z"/>
<path d="M1110 3280 c-13 -8 -15 -144 -18 -1103 l-2 -1094 21 -26 c20 -27 21
-27 158 -27 121 0 140 2 154 18 16 17 17 109 17 1118 0 842 -3 1103 -12 1112
-15 15 -295 17 -318 2z"/>
<path d="M1542 3278 c-9 -9 -12 -194 -12 -771 0 -712 1 -761 18 -773 25 -20
315 -20 331 0 16 19 16 1523 0 1543 -15 18 -319 19 -337 1z"/>
<path d="M674 2993 c-17 -27 -46 -79 -63 -118 -18 -38 -38 -81 -45 -95 -7 -14
-19 -47 -25 -75 -7 -27 -19 -63 -26 -80 -13 -30 -26 -91 -47 -215 -14 -85 -14
-398 0 -475 6 -33 19 -100 28 -150 9 -49 19 -94 24 -100 4 -5 15 -41 25 -80
28 -114 180 -435 206 -435 5 0 9 -5 9 -11 0 -12 56 -85 97 -127 28 -28 32 -7
6 29 -18 24 -71 130 -111 219 -17 38 -38 103 -92 285 -5 17 -14 59 -20 95 -6
36 -18 101 -26 145 -33 181 -28 751 7 891 6 21 15 62 20 89 5 28 14 59 18 70
8 18 45 124 58 168 10 33 -12 17 -43 -30z"/>
<path d="M1560 1697 c-15 -8 -27 -25 -32 -47 -9 -47 -5 -560 6 -582 7 -15 44
-17 379 -20 309 -3 375 -1 390 11 15 12 17 35 17 191 0 159 -2 179 -18 193
-16 15 -46 17 -204 17 -160 0 -187 2 -192 16 -3 9 -6 50 -6 92 0 97 -6 117
-36 131 -35 15 -272 14 -304 -2z"/>
</g>
</svg>
